<?xml version="1.0" standalone="no"?>
<!DOCTYPE svg PUBLIC "-//W3C//DTD SVG 20010904//EN"
 "http://www.w3.org/TR/2001/REC-SVG-20010904/DTD/svg10.dtd">
<svg version="1.0" xmlns="http://www.w3.org/2000/svg"
 width="161.000000pt" height="94.000000pt" viewBox="0 0 161.000000 94.000000"
 preserveAspectRatio="xMidYMid meet">

<g transform="translate(0.000000,94.000000) scale(0.100000,-0.100000)"
fill="#000000" stroke="none">
<path d="M140 485 l0 -325 92 0 91 0 -6 189 c-4 109 -3 192 2 195 5 3 17 -7
27 -22 17 -27 49 -70 192 -265 l73 -97 84 0 85 0 0 325 0 325 -90 0 -90 0 0
-182 0 -183 -20 25 c-11 14 -72 96 -136 183 l-116 157 -94 0 -94 0 0 -325z"/>
<path d="M920 486 l0 -326 95 0 95 0 0 104 0 103 68 7 c185 17 272 91 272 233
0 81 -31 139 -91 173 -42 24 -52 25 -241 28 l-198 4 0 -326z m307 172 c17 -16
23 -32 23 -65 0 -60 -25 -83 -90 -83 l-50 0 0 85 0 85 47 0 c34 0 53 -6 70
-22z"/>
</g>
</svg>
